<?xml version="1.0" encoding="UTF-8" standalone="no" ?>
<!DOCTYPE svg PUBLIC "-//W3C//DTD SVG 1.1//EN" "http://www.w3.org/Graphics/SVG/1.1/DTD/svg11.dtd">
<svg xmlns="http://www.w3.org/2000/svg" xmlns:xlink="http://www.w3.org/1999/xlink" version="1.1" width="1080" height="1080" viewBox="0 0 1080 1080" xml:space="preserve">
<desc>Created with Fabric.js 5.2.4</desc>
<defs>
</defs>
<g transform="matrix(1 0 0 1 540 540)" id="9656bf66-043a-492a-9db3-07d470672879"  >
<rect style="stroke: none; stroke-width: 1; stroke-dasharray: none; stroke-linecap: butt; stroke-dashoffset: 0; stroke-linejoin: miter; stroke-miterlimit: 4; fill: rgb(255,255,255); fill-rule: nonzero; opacity: 1; visibility: hidden;" vector-effect="non-scaling-stroke"  x="-540" y="-540" rx="0" ry="0" width="1080" height="1080" />
</g>
<g transform="matrix(1 0 0 1 540 540)" id="4748dbdb-61d9-488c-8198-9325503e1726"  >
</g>
<g transform="matrix(1.96 0 0 1.96 540 540)"  >
<g style=""   >
		<g transform="matrix(1 0 0 1 -121.02 115.65)"  >
<path style="stroke: none; stroke-width: 1; stroke-dasharray: none; stroke-linecap: butt; stroke-dashoffset: 0; stroke-linejoin: miter; stroke-miterlimit: 10; fill: rgb(242,205,0); fill-rule: nonzero; opacity: 1;" vector-effect="non-scaling-stroke"  transform=" translate(-153.98, -350.65)" d="M 156.50684 352.70152 C 156.55363 352.70152 156.60042 352.71029000000004 156.64721 352.72784 C 156.694 352.74539000000004 156.73884 352.7756 156.78173 352.81849 L 157.56544000000002 353.64314 C 157.22232000000002 354.09153000000003 156.79246000000003 354.42977 156.27583 354.65786 C 155.75921000000002 354.88595000000004 155.14803 355 154.44231000000002 355 C 153.79507 355 153.21509000000003 354.88985 152.70236000000003 354.66956 C 152.18964000000003 354.44926 151.75489000000002 354.14513999999997 151.39813000000004 353.75719 C 151.04137000000003 353.36924 150.76746000000003 352.90914999999995 150.57641000000004 352.37692999999996 C 150.38536000000005 351.84470999999996 150.28983000000005 351.26667999999995 150.28983000000005 350.64282999999995 C 150.28983000000005 350.00728999999995 150.39900000000006 349.42340999999993 150.61735000000004 348.89118999999994 C 150.83570000000003 348.35896999999994 151.14080000000004 347.89985999999993 151.53265000000005 347.51384999999993 C 151.92450000000005 347.1278499999999 152.39336000000006 346.8276199999999 152.93923000000004 346.6131699999999 C 153.48510000000005 346.3987199999999 154.08750000000003 346.2914999999999 154.74643000000003 346.2914999999999 C 155.06615000000002 346.2914999999999 155.36735000000004 346.31976999999995 155.65003000000004 346.3762999999999 C 155.93271000000004 346.4328399999999 156.19687000000005 346.5108199999999 156.44251000000006 346.6102399999999 C 156.68815000000006 346.7096699999999 156.91429000000005 346.8285899999999 157.12094000000005 346.9669999999999 C 157.32759000000004 347.1054199999999 157.51084000000006 347.2584499999999 157.67070000000004 347.42610999999994 L 157.00396000000003 348.32093999999995 C 156.96107000000003 348.37552999999997 156.91038000000003 348.42524 156.85190000000003 348.47007999999994 C 156.79341000000002 348.51491999999996 156.71153000000004 348.5373399999999 156.60626000000002 348.5373399999999 C 156.53608000000003 348.5373399999999 156.46979000000002 348.5217399999999 156.40741000000003 348.4905499999999 C 156.34503000000004 348.45935999999995 156.27874000000003 348.42133999999993 156.20856000000003 348.3764999999999 C 156.13838000000004 348.3316599999999 156.06137000000004 348.28291999999993 155.97754000000003 348.2302899999999 C 155.89371000000003 348.1776499999999 155.79429000000005 348.12891999999994 155.67926000000003 348.0840799999999 C 155.56424000000004 348.0392399999999 155.42972000000003 348.0012299999999 155.27571000000003 347.9700299999999 C 155.12170000000003 347.9388399999999 154.94137000000003 347.9232399999999 154.73472000000004 347.9232399999999 C 154.37601000000004 347.9232399999999 154.04849000000004 347.9865999999999 153.75216000000003 348.11331999999993 C 153.45583000000002 348.2400399999999 153.20142000000004 348.42133999999993 152.98892000000004 348.65723999999994 C 152.77642000000003 348.8931299999999 152.61071000000004 349.17873999999995 152.49179000000004 349.51404999999994 C 152.37287000000003 349.84936999999996 152.31341000000003 350.22561999999994 152.31341000000003 350.6428199999999 C 152.31341000000003 351.0795099999999 152.37287000000003 351.46746999999993 152.49179000000004 351.8066799999999 C 152.61071000000004 352.1458999999999 152.77252000000004 352.4314999999999 152.97722000000005 352.6634899999999 C 153.18192000000005 352.8954799999999 153.42074000000005 353.0719099999999 153.69367000000005 353.1927799999999 C 153.96660000000006 353.31364999999994 154.25903000000005 353.3740899999999 154.57095000000007 353.3740899999999 C 154.75031000000007 353.3740899999999 154.91407000000007 353.3653199999999 155.06223000000006 353.3477699999999 C 155.21039000000005 353.3302199999999 155.34783000000004 353.30000999999993 155.47455000000005 353.25711999999993 C 155.60127000000006 353.21422999999993 155.72214000000005 353.1586699999999 155.83716000000004 353.09043999999994 C 155.95218000000003 353.0222099999999 156.06818000000004 352.93739999999997 156.18515000000005 352.83602999999994 C 156.23194000000004 352.7970399999999 156.28263000000004 352.7648699999999 156.33721000000006 352.73952999999995 C 156.39180000000005 352.7141899999999 156.44833000000006 352.7015099999999 156.50682000000006 352.7015099999999 z" stroke-linecap="round" />
</g>
		<g transform="matrix(1 0 0 1 -106.89 115.65)"  >
<path style="stroke: none; stroke-width: 1; stroke-dasharray: none; stroke-linecap: butt; stroke-dashoffset: 0; stroke-linejoin: miter; stroke-miterlimit: 10; fill: rgb(242,205,0); fill-rule: nonzero; opacity: 1;" vector-effect="non-scaling-stroke"  transform=" translate(-168.11, -350.65)" d="M 172.54158 350.64282 C 172.54158 351.25886999999994 172.43533000000002 351.83203 172.22283000000002 352.36229999999995 C 172.01033 352.8925699999999 171.71108 353.35362999999995 171.32508 353.74547999999993 C 170.93908000000002 354.1373299999999 170.47411000000002 354.4443799999999 169.9302 354.66662999999994 C 169.38628 354.8888799999999 168.78291000000002 354.99999999999994 168.12007000000003 354.99999999999994 C 167.45723000000004 354.99999999999994 166.85288000000003 354.8888799999999 166.30702000000002 354.66662999999994 C 165.76115000000001 354.44437999999997 165.29424000000003 354.13733999999994 164.90629 353.74547999999993 C 164.51834000000002 353.35362999999995 164.21811000000002 352.8925699999999 164.00561000000002 352.36229999999995 C 163.79311 351.83203 163.68686000000002 351.25886999999994 163.68686000000002 350.64282 C 163.68686000000002 350.02677 163.79311 349.45360999999997 164.00561000000002 348.92334 C 164.21811000000002 348.39307 164.51833000000002 347.93298 164.90629 347.54308 C 165.29424 347.15317999999996 165.76115000000001 346.84709999999995 166.30702000000002 346.62485999999996 C 166.85289000000003 346.40261 167.45724 346.29148999999995 168.12007000000003 346.29148999999995 C 168.78291000000002 346.29148999999995 169.38628000000003 346.40358999999995 169.9302 346.62778 C 170.47412000000003 346.85197 170.93908000000002 347.15902 171.32508 347.54893 C 171.71108 347.93883 172.01034 348.39892 172.22283000000002 348.92919 C 172.43533000000002 349.45946 172.54158 350.03067 172.54158 350.64282000000003 z M 170.51798 350.64282 C 170.51798 350.22171999999995 170.46339 349.84254 170.35422 349.50527999999997 C 170.24505 349.16801 170.08811 348.88241 169.88341 348.64847 C 169.67871 348.41452999999996 169.4282 348.23517 169.13187 348.11039999999997 C 168.83553999999998 347.98562999999996 168.49828 347.92325 168.12007 347.92325 C 167.73796 347.92325 167.39777 347.98563 167.0995 348.11039999999997 C 166.80122 348.23517 166.54974 348.41452 166.34504 348.64847 C 166.14034 348.88241 165.98340000000002 349.16801999999996 165.87423 349.50527999999997 C 165.76506 349.84254999999996 165.71047000000002 350.22173 165.71047000000002 350.64282 C 165.71047000000002 351.06782 165.76506 351.44894999999997 165.87423 351.78621 C 165.98340000000002 352.12348 166.14034 352.40907999999996 166.34504 352.64302 C 166.54974 352.87696 166.80123 353.05534 167.0995 353.17816 C 167.39778 353.30098 167.73797000000002 353.36239 168.12007 353.36239 C 168.49828 353.36239 168.83554 353.30098 169.13187 353.17816 C 169.4282 353.05534 169.67871 352.87696 169.88341 352.64302 C 170.08811 352.40907999999996 170.24505 352.12347 170.35422 351.78621 C 170.46339 351.44894 170.51798 351.06781 170.51798 350.64282 z" stroke-linecap="round" />
</g>
		<g transform="matrix(1 0 0 1 -91.94 115.65)"  >
<path style="stroke: none; stroke-width: 1; stroke-dasharray: none; stroke-linecap: butt; stroke-dashoffset: 0; stroke-linejoin: miter; stroke-miterlimit: 10; fill: rgb(242,205,0); fill-rule: nonzero; opacity: 1;" vector-effect="non-scaling-stroke"  transform=" translate(-183.06, -350.65)" d="M 180.38059 346.38507 C 180.46637 346.38507 180.5385 346.38897 180.59699 346.39677 C 180.65548 346.40457 180.70811 346.41919 180.7549 346.44063 C 180.80168999999998 346.46207 180.84653 346.49229 180.88942 346.53128 C 180.93231 346.57027 180.98105 346.62291 181.03563 346.68919 L 185.08283 351.80668 C 185.06723 351.64291999999995 185.05554 351.48402999999996 185.04774 351.33002 C 185.03994 351.17600999999996 185.03604 351.03077 185.03604 350.8943 L 185.03604 346.38506 L 186.77891000000002 346.38506 L 186.77891000000002 354.90641 L 185.74956000000003 354.90641 C 185.59750000000003 354.90641 185.46883000000003 354.88302 185.36356000000004 354.83623 C 185.25829000000004 354.78944 185.15691000000004 354.70366 185.05944000000002 354.57889 L 181.04148000000004 349.50234 C 181.05318000000003 349.6505 181.06292000000005 349.79574 181.07072000000002 349.93806 C 181.07852000000003 350.08037 181.08242 350.21392000000003 181.08242 350.33869 L 181.08242 354.90641 L 179.33955 354.90641 L 179.33955 346.38506 z" stroke-linecap="round" />
</g>
		<g transform="matrix(1 0 0 1 -77.32 115.65)"  >
<path style="stroke: none; stroke-width: 1; stroke-dasharray: none; stroke-linecap: butt; stroke-dashoffset: 0; stroke-linejoin: miter; stroke-miterlimit: 10; fill: rgb(242,205,0); fill-rule: nonzero; opacity: 1;" vector-effect="non-scaling-stroke"  transform=" translate(-197.68, -350.65)" d="M 194.99966 346.38507 C 195.08544 346.38507 195.15757 346.38897 195.21606 346.39677 C 195.27455 346.40457 195.32718 346.41919 195.37396999999999 346.44063 C 195.42075999999997 346.46207 195.4656 346.49229 195.50849 346.53128 C 195.55138 346.57027 195.60012 346.62291 195.6547 346.68919 L 199.7019 351.80668 C 199.6863 351.64291999999995 199.67461 351.48402999999996 199.66681 351.33002 C 199.65901 351.17600999999996 199.65511 351.03077 199.65511 350.8943 L 199.65511 346.38506 L 201.39798000000002 346.38506 L 201.39798000000002 354.90641 L 200.36863000000002 354.90641 C 200.21657000000002 354.90641 200.08790000000002 354.88302 199.98263000000003 354.83623 C 199.87736000000004 354.78944 199.77598000000003 354.70366 199.67851000000002 354.57889 L 195.66055000000003 349.50234 C 195.67225000000002 349.6505 195.68199000000004 349.79574 195.68979000000002 349.93806 C 195.69759000000002 350.08037 195.70149 350.21392000000003 195.70149 350.33869 L 195.70149 354.90641 L 193.95862 354.90641 L 193.95862 346.38506 z" stroke-linecap="round" />
</g>
		<g transform="matrix(1 0 0 1 -63.97 115.65)"  >
<path style="stroke: none; stroke-width: 1; stroke-dasharray: none; stroke-linecap: butt; stroke-dashoffset: 0; stroke-linejoin: miter; stroke-miterlimit: 10; fill: rgb(242,205,0); fill-rule: nonzero; opacity: 1;" vector-effect="non-scaling-stroke"  transform=" translate(-211.03, -350.65)" d="M 213.7745 346.38507 L 213.7745 347.90569 L 210.27705999999998 347.90569 L 210.27705999999998 349.8942 L 212.95569999999998 349.8942 L 212.95569999999998 351.35634 L 210.27705999999998 351.35634 L 210.27705999999998 353.38579 L 213.7745 353.38579 L 213.7745 354.90641 L 208.28855 354.90641 L 208.28855 346.38506 z" stroke-linecap="round" />
</g>
		<g transform="matrix(1 0 0 1 -51.65 115.65)"  >
<path style="stroke: none; stroke-width: 1; stroke-dasharray: none; stroke-linecap: butt; stroke-dashoffset: 0; stroke-linejoin: miter; stroke-miterlimit: 10; fill: rgb(242,205,0); fill-rule: nonzero; opacity: 1;" vector-effect="non-scaling-stroke"  transform=" translate(-223.35, -350.65)" d="M 225.87289 352.70152 C 225.91968 352.70152 225.96647000000002 352.71029000000004 226.01326 352.72784 C 226.06005 352.74539000000004 226.10489 352.7756 226.14778 352.81849 L 226.93149000000003 353.64314 C 226.58837000000003 354.09153000000003 226.15851000000004 354.42977 225.64188000000001 354.65786 C 225.12526000000003 354.88595000000004 224.51408 355 223.80836000000002 355 C 223.16112 355 222.58114000000003 354.88985 222.06841000000003 354.66956 C 221.55569000000003 354.44926 221.12094000000002 354.14513999999997 220.76418000000004 353.75719 C 220.40742000000003 353.36924 220.13351000000003 352.90914999999995 219.94246000000004 352.37692999999996 C 219.75141000000005 351.84470999999996 219.65588000000005 351.26667999999995 219.65588000000005 350.64282999999995 C 219.65588000000005 350.00728999999995 219.76505000000006 349.42340999999993 219.98340000000005 348.89118999999994 C 220.20175000000003 348.35896999999994 220.50685000000004 347.89985999999993 220.89870000000005 347.51384999999993 C 221.29055000000005 347.1278499999999 221.75941000000006 346.8276199999999 222.30528000000004 346.6131699999999 C 222.85115000000005 346.3987199999999 223.45355000000004 346.2914999999999 224.11248000000003 346.2914999999999 C 224.43220000000002 346.2914999999999 224.73340000000005 346.31976999999995 225.01608000000004 346.3762999999999 C 225.29876000000004 346.4328399999999 225.56292000000005 346.5108199999999 225.80856000000006 346.6102399999999 C 226.05420000000007 346.7096699999999 226.28034000000005 346.8285899999999 226.48699000000005 346.9669999999999 C 226.69364000000004 347.1054199999999 226.87689000000006 347.2584499999999 227.03675000000004 347.42610999999994 L 226.37001000000004 348.32093999999995 C 226.32712000000004 348.37552999999997 226.27643000000003 348.42524 226.21795000000003 348.47007999999994 C 226.15946000000002 348.51491999999996 226.07758000000004 348.5373399999999 225.97231000000002 348.5373399999999 C 225.90213000000003 348.5373399999999 225.83584000000002 348.5217399999999 225.77346000000003 348.4905499999999 C 225.71108000000004 348.45935999999995 225.64479000000003 348.42133999999993 225.57461000000004 348.3764999999999 C 225.50443000000004 348.3316599999999 225.42742000000004 348.28291999999993 225.34359000000003 348.2302899999999 C 225.25976000000003 348.1776499999999 225.16034000000005 348.12891999999994 225.04531000000003 348.0840799999999 C 224.93029000000004 348.0392399999999 224.79577000000003 348.0012299999999 224.64176000000003 347.9700299999999 C 224.48775000000003 347.9388399999999 224.30742000000004 347.9232399999999 224.10077000000004 347.9232399999999 C 223.74206000000004 347.9232399999999 223.41454000000004 347.9865999999999 223.11821000000003 348.11331999999993 C 222.82188000000002 348.2400399999999 222.56747000000004 348.42133999999993 222.35497000000004 348.65723999999994 C 222.14247000000003 348.8931299999999 221.97676000000004 349.17873999999995 221.85784000000004 349.51404999999994 C 221.73892000000004 349.84936999999996 221.67946000000003 350.22561999999994 221.67946000000003 350.6428199999999 C 221.67946000000003 351.0795099999999 221.73892000000004 351.46746999999993 221.85784000000004 351.8066799999999 C 221.97676000000004 352.1458999999999 222.13857000000004 352.4314999999999 222.34327000000005 352.6634899999999 C 222.54797000000005 352.8954799999999 222.78679000000005 353.0719099999999 223.05972000000006 353.1927799999999 C 223.33265000000006 353.31364999999994 223.62508000000005 353.3740899999999 223.93700000000007 353.3740899999999 C 224.11636000000007 353.3740899999999 224.28012000000007 353.3653199999999 224.42828000000006 353.3477699999999 C 224.57644000000005 353.3302199999999 224.71388000000005 353.30000999999993 224.84060000000005 353.25711999999993 C 224.96732000000006 353.21422999999993 225.08819000000005 353.1586699999999 225.20321000000004 353.09043999999994 C 225.31823000000003 353.0222099999999 225.43423000000004 352.93739999999997 225.55120000000005 352.83602999999994 C 225.59799000000004 352.7970399999999 225.64868000000004 352.7648699999999 225.70326000000006 352.73952999999995 C 225.75785000000005 352.7141899999999 225.81438000000006 352.7015099999999 225.87287000000006 352.7015099999999 z" stroke-linecap="round" />
</g>
		<g transform="matrix(1 0 0 1 -39.05 115.65)"  >
<path style="stroke: none; stroke-width: 1; stroke-dasharray: none; stroke-linecap: butt; stroke-dashoffset: 0; stroke-linejoin: miter; stroke-miterlimit: 10; fill: rgb(242,205,0); fill-rule: nonzero; opacity: 1;" vector-effect="non-scaling-stroke"  transform=" translate(-235.95, -350.65)" d="M 239.33545 346.38507 L 239.33545 347.95248 L 236.93754 347.95248 L 236.93754 354.90641 L 234.96073 354.90641 L 234.96073 347.95248 L 232.56282000000002 347.95248 L 232.56282000000002 346.38507 z" stroke-linecap="round" />
</g>
		<g transform="matrix(1 0 0 1 -28.93 115.65)"  >
<path style="stroke: none; stroke-width: 1; stroke-dasharray: none; stroke-linecap: butt; stroke-dashoffset: 0; stroke-linejoin: miter; stroke-miterlimit: 10; fill: rgb(242,205,0); fill-rule: nonzero; opacity: 1;" vector-effect="non-scaling-stroke"  transform=" translate(-246.07, -350.65)" d="M 247.06759 354.90642 L 245.07908 354.90642 L 245.07908 346.38507000000004 L 247.06759 346.38507000000004 z" stroke-linecap="round" />
</g>
		<g transform="matrix(1 0 0 1 -17.61 115.65)"  >
<path style="stroke: none; stroke-width: 1; stroke-dasharray: none; stroke-linecap: butt; stroke-dashoffset: 0; stroke-linejoin: miter; stroke-miterlimit: 10; fill: rgb(242,205,0); fill-rule: nonzero; opacity: 1;" vector-effect="non-scaling-stroke"  transform=" translate(-257.39, -350.65)" d="M 254.70894 346.38507 C 254.79472 346.38507 254.86685 346.38897 254.92534 346.39677 C 254.98383 346.40457 255.03646 346.41919 255.08325 346.44063 C 255.13003999999998 346.46207 255.17488 346.49229 255.21777 346.53128 C 255.26066 346.57027 255.3094 346.62291 255.36398 346.68919 L 259.41118 351.80668 C 259.39558 351.64291999999995 259.38389 351.48402999999996 259.37609 351.33002 C 259.36829 351.17600999999996 259.36438999999996 351.03077 259.36438999999996 350.8943 L 259.36438999999996 346.38506 L 261.10725999999994 346.38506 L 261.10725999999994 354.90641 L 260.0779099999999 354.90641 C 259.9258499999999 354.90641 259.7971799999999 354.88302 259.6919099999999 354.83623 C 259.5866399999999 354.78944 259.48525999999987 354.70366 259.3877899999999 354.57889 L 255.3698299999999 349.50234 C 255.38152999999988 349.6505 255.3912699999999 349.79574 255.39906999999988 349.93806 C 255.40686999999988 350.08037 255.41076999999987 350.21392000000003 255.41076999999987 350.33869 L 255.41076999999987 354.90641 L 253.66789999999986 354.90641 L 253.66789999999986 346.38506 z" stroke-linecap="round" />
</g>
		<g transform="matrix(1 0 0 1 -3.48 115.65)"  >
<path style="stroke: none; stroke-width: 1; stroke-dasharray: none; stroke-linecap: butt; stroke-dashoffset: 0; stroke-linejoin: miter; stroke-miterlimit: 10; fill: rgb(242,205,0); fill-rule: nonzero; opacity: 1;" vector-effect="non-scaling-stroke"  transform=" translate(-271.52, -350.65)" d="M 272.18827 353.47938 C 272.46119999999996 353.47938 272.70294 353.45599 272.91348999999997 353.4092 C 273.12404 353.36241 273.32289 353.30003 273.51003999999995 353.22205 L 273.51003999999995 351.92952 L 272.66784999999993 351.92952 C 272.5430799999999 351.92952 272.44559999999996 351.89638 272.3754199999999 351.83009000000004 C 272.3052399999999 351.76381000000003 272.2701499999999 351.67998000000006 272.2701499999999 351.57860000000005 L 272.2701499999999 350.49077000000005 L 275.29969999999986 350.49077000000005 L 275.29969999999986 354.08763000000005 C 275.0813499999999 354.24749 274.85422999999986 354.38493000000005 274.6183399999999 354.49995000000007 C 274.3824499999999 354.6149700000001 274.1309599999999 354.70952000000005 273.8638799999999 354.78361000000007 C 273.59679999999986 354.85769000000005 273.31216999999987 354.91228000000007 273.0099899999999 354.9473700000001 C 272.7078099999999 354.9824600000001 272.3832199999999 355.0000100000001 272.0362099999999 355.0000100000001 C 271.4123599999999 355.0000100000001 270.83530999999994 354.8898600000001 270.3050399999999 354.6695700000001 C 269.77476999999993 354.44927000000007 269.3156599999999 354.14515000000006 268.9276999999999 353.75720000000007 C 268.5397499999999 353.3692500000001 268.2356199999999 352.90916000000004 268.0153299999999 352.37694000000005 C 267.7950299999999 351.84472000000005 267.6848899999999 351.26669000000004 267.6848899999999 350.64284000000004 C 267.6848899999999 350.00730000000004 267.7901599999999 349.42342 268.00070999999986 348.8912 C 268.21125999999987 348.35898000000003 268.51245999999986 347.89987 268.90430999999984 347.51386 C 269.2961599999998 347.12786 269.76989999999984 346.82763 270.32550999999984 346.61318 C 270.88111999999984 346.39873 271.50203999999985 346.29151 272.18827999999985 346.29151 C 272.54308999999984 346.29151 272.87645999999984 346.32075000000003 273.1883799999998 346.37924000000004 C 273.5002999999998 346.43773000000004 273.78785999999985 346.51766000000003 274.05103999999983 346.61903000000007 C 274.31422999999984 346.72040000000004 274.5549899999998 346.84128000000004 274.77333999999985 346.9816400000001 C 274.99168999999983 347.1220100000001 275.18663999999984 347.2740700000001 275.35819999999984 347.4378300000001 L 274.78503999999987 348.3092700000001 C 274.73044999999985 348.3911500000001 274.6651399999999 348.4554800000001 274.5891099999999 348.50227000000007 C 274.5130799999999 348.54906000000005 274.4302199999999 348.57245000000006 274.3405499999999 348.57245000000006 C 274.2235799999999 348.57245000000006 274.1027099999999 348.53346000000005 273.9779399999999 348.4554800000001 C 273.8219799999999 348.3619000000001 273.67478999999986 348.28100000000006 273.53636999999986 348.21276000000006 C 273.39794999999987 348.14453000000003 273.25660999999985 348.0889700000001 273.1123499999999 348.0460800000001 C 272.9680899999999 348.0031900000001 272.81601999999987 347.9720000000001 272.6561599999999 347.9525000000001 C 272.4962999999999 347.9330000000001 272.3169399999999 347.9232600000001 272.1180899999999 347.9232600000001 C 271.7476799999999 347.9232600000001 271.4143099999999 347.9885700000001 271.1179899999999 348.11919000000006 C 270.8216599999999 348.2498100000001 270.5691999999999 348.43404000000004 270.3605999999999 348.67188000000004 C 270.15199999999993 348.90972000000005 269.9911699999999 349.19533000000007 269.87808999999993 349.52869000000004 C 269.76501999999994 349.86206000000004 269.70847999999995 350.23344000000003 269.70847999999995 350.64284000000004 C 269.70847999999995 351.09513000000004 269.77085999999997 351.49673 269.8956299999999 351.84764 C 270.02039999999994 352.19855 270.19292999999993 352.49488 270.41322999999994 352.73662 C 270.63352999999995 352.97836 270.89475999999996 353.16259 271.1969399999999 353.28931 C 271.49911999999995 353.41603 271.8295599999999 353.47939 272.18826999999993 353.47939 z" stroke-linecap="round" />
</g>
		<g transform="matrix(1 0 0 1 15.85 115.65)"  >
<path style="stroke: none; stroke-width: 1; stroke-dasharray: none; stroke-linecap: butt; stroke-dashoffset: 0; stroke-linejoin: miter; stroke-miterlimit: 10; fill: rgb(242,205,0); fill-rule: nonzero; opacity: 1;" vector-effect="non-scaling-stroke"  transform=" translate(-290.85, -350.65)" d="M 294.23908 346.38507 L 294.23908 347.95248 L 291.84117 347.95248 L 291.84117 354.90641 L 289.86436 354.90641 L 289.86436 347.95248 L 287.46644999999995 347.95248 L 287.46644999999995 346.38507 z" stroke-linecap="round" />
</g>
		<g transform="matrix(1 0 0 1 29.28 115.65)"  >
<path style="stroke: none; stroke-width: 1; stroke-dasharray: none; stroke-linecap: butt; stroke-dashoffset: 0; stroke-linejoin: miter; stroke-miterlimit: 10; fill: rgb(242,205,0); fill-rule: nonzero; opacity: 1;" vector-effect="non-scaling-stroke"  transform=" translate(-304.28, -350.65)" d="M 308.00148 354.90642 L 306.01297 354.90642 L 306.01297 351.30371 L 302.55062 351.30371 L 302.55062 354.90642 L 300.56210999999996 354.90642 L 300.56210999999996 346.38507000000004 L 302.55062 346.38507000000004 L 302.55062 349.94684000000007 L 306.01297 349.94684000000007 L 306.01297 346.38507000000004 L 308.00148 346.38507000000004 z" stroke-linecap="round" />
</g>
		<g transform="matrix(1 0 0 1 42.64 115.65)"  >
<path style="stroke: none; stroke-width: 1; stroke-dasharray: none; stroke-linecap: butt; stroke-dashoffset: 0; stroke-linejoin: miter; stroke-miterlimit: 10; fill: rgb(242,205,0); fill-rule: nonzero; opacity: 1;" vector-effect="non-scaling-stroke"  transform=" translate(-317.64, -350.65)" d="M 320.378 346.38507 L 320.378 347.90569 L 316.88056 347.90569 L 316.88056 349.8942 L 319.5592 349.8942 L 319.5592 351.35634 L 316.88056 351.35634 L 316.88056 353.38579 L 320.378 353.38579 L 320.378 354.90641 L 314.89205 354.90641 L 314.89205 346.38506 z" stroke-linecap="round" />
</g>
		<g transform="matrix(1 0 0 1 64.1 115.65)"  >
<path style="stroke: none; stroke-width: 1; stroke-dasharray: none; stroke-linecap: butt; stroke-dashoffset: 0; stroke-linejoin: miter; stroke-miterlimit: 10; fill: rgb(242,205,0); fill-rule: nonzero; opacity: 1;" vector-effect="non-scaling-stroke"  transform=" translate(-339.1, -350.65)" d="M 332.89089 346.38507 L 334.55188000000004 346.38507 C 334.72344000000004 346.38507 334.86673 346.42406 334.98175000000003 346.50203999999997 C 335.09677000000005 346.58002 335.17183000000006 346.68334999999996 335.20692 346.81201 L 336.37663000000003 351.25691 C 336.41562000000005 351.40117 336.45461000000006 351.55519 336.4936 351.71895 C 336.53259 351.88271000000003 336.56183000000004 352.05427000000003 336.58133000000004 352.23362000000003 C 336.62032000000005 352.05037000000004 336.66321000000005 351.87783 336.71000000000004 351.71602 C 336.75679 351.55421 336.80163000000005 351.40117000000004 336.84452000000005 351.25691 L 338.22478000000007 346.81201 C 338.2598700000001 346.70284 338.33493000000004 346.60438999999997 338.44995000000006 346.51666 C 338.5649700000001 346.42893 338.70436000000007 346.38507 338.86812000000003 346.38507 L 339.45298 346.38507 C 339.62454 346.38507 339.76588000000004 346.42309 339.877 346.49912 C 339.98812000000004 346.57515 340.06513 346.67945000000003 340.10802 346.81202 L 341.47658 351.25692000000004 C 341.51947 351.39339 341.56431000000003 351.53863 341.6111 351.69264000000004 C 341.65789 351.84665000000007 341.69883000000004 352.01139000000006 341.73392 352.18684 C 341.76511 352.01528 341.79728 351.85152 341.83042 351.69556 C 341.86356 351.5396 341.89768 351.39338 341.93277 351.25692 L 343.10248 346.81201999999996 C 343.13367 346.69894999999997 343.20775000000003 346.59952 343.32473 346.51374 C 343.44169999999997 346.42796 343.58207 346.38507 343.74583 346.38507 L 345.30155 346.38507 L 342.66970000000003 354.90641999999997 L 340.88004 354.90641999999997 L 339.27754 349.62516999999997 C 339.25025 349.54328999999996 339.22198 349.45360999999997 339.19274 349.35614 C 339.1635 349.25865999999996 339.13523000000004 349.15533999999997 339.10794000000004 349.04616999999996 C 339.08065000000005 349.15533999999997 339.05238 349.25866999999994 339.02314000000007 349.35614 C 338.99390000000005 349.45362 338.9656300000001 349.54328999999996 338.9383400000001 349.62516999999997 L 337.3124400000001 354.90641999999997 L 335.52278000000007 354.90641999999997 z" stroke-linecap="round" />
</g>
		<g transform="matrix(1 0 0 1 81.44 115.65)"  >
<path style="stroke: none; stroke-width: 1; stroke-dasharray: none; stroke-linecap: butt; stroke-dashoffset: 0; stroke-linejoin: miter; stroke-miterlimit: 10; fill: rgb(242,205,0); fill-rule: nonzero; opacity: 1;" vector-effect="non-scaling-stroke"  transform=" translate(-356.44, -350.65)" d="M 360.8714 350.64282 C 360.8714 351.25886999999994 360.76515 351.83203 360.55264999999997 352.36229999999995 C 360.34015 352.8925699999999 360.04089999999997 353.35362999999995 359.6549 353.74547999999993 C 359.2689 354.1373299999999 358.80393 354.4443799999999 358.26002 354.66662999999994 C 357.7161 354.8888799999999 357.11273 354.99999999999994 356.44989 354.99999999999994 C 355.78704999999997 354.99999999999994 355.18269999999995 354.8888799999999 354.63684 354.66662999999994 C 354.09097 354.44437999999997 353.62406 354.13733999999994 353.23611 353.74547999999993 C 352.84816 353.35362999999995 352.54793 352.8925699999999 352.33543 352.36229999999995 C 352.12293 351.83203 352.01667999999995 351.25886999999994 352.01667999999995 350.64282 C 352.01667999999995 350.02677 352.12292999999994 349.45360999999997 352.33543 348.92334 C 352.54792999999995 348.39307 352.84815 347.93298 353.23611 347.54308 C 353.62406 347.15317999999996 354.09096999999997 346.84709999999995 354.63684 346.62485999999996 C 355.18271 346.40261 355.78706 346.29148999999995 356.44989 346.29148999999995 C 357.11273 346.29148999999995 357.7161 346.40358999999995 358.26002 346.62778 C 358.80394 346.85197 359.2689 347.15902 359.6549 347.54893 C 360.0409 347.93883 360.34016 348.39892 360.55264999999997 348.92919 C 360.76514999999995 349.45946 360.8714 350.03067 360.8714 350.64282000000003 z M 358.8478 350.64282 C 358.8478 350.22171999999995 358.79321 349.84254 358.68404 349.50527999999997 C 358.57487 349.16801 358.41792999999996 348.88241 358.21323 348.64847 C 358.00853 348.41452999999996 357.75802 348.23517 357.46169000000003 348.11039999999997 C 357.16536 347.98562999999996 356.8281 347.92325 356.44989000000004 347.92325 C 356.06778 347.92325 355.72759 347.98563 355.42932 348.11039999999997 C 355.13104000000004 348.23517 354.87956 348.41452 354.67486 348.64847 C 354.47016 348.88241 354.31322 349.16801999999996 354.20405000000005 349.50527999999997 C 354.09488000000005 349.84254999999996 354.04029 350.22173 354.04029 350.64282 C 354.04029 351.06782 354.09488000000005 351.44894999999997 354.20405000000005 351.78621 C 354.31322000000006 352.12348 354.4701600000001 352.40907999999996 354.67486 352.64302 C 354.87956 352.87696 355.13105 353.05534 355.42932 353.17816 C 355.7276 353.30098 356.06779 353.36239 356.44989000000004 353.36239 C 356.82810000000006 353.36239 357.16536 353.30098 357.46169000000003 353.17816 C 357.75802000000004 353.05534 358.00853 352.87696 358.21323 352.64302 C 358.41793 352.40907999999996 358.57487000000003 352.12347 358.68404 351.78621 C 358.79321 351.44894 358.8478 351.06781 358.8478 350.64282 z" stroke-linecap="round" />
</g>
		<g transform="matrix(1 0 0 1 96.09 115.65)"  >
<path style="stroke: none; stroke-width: 1; stroke-dasharray: none; stroke-linecap: butt; stroke-dashoffset: 0; stroke-linejoin: miter; stroke-miterlimit: 10; fill: rgb(242,205,0); fill-rule: nonzero; opacity: 1;" vector-effect="non-scaling-stroke"  transform=" translate(-371.09, -350.65)" d="M 369.57692 351.75405 L 369.57692 354.90642 L 367.60011 354.90642 L 367.60011 346.38507000000004 L 370.37233 346.38507000000004 C 370.98837999999995 346.38507000000004 371.51376999999997 346.44843000000003 371.94852 346.57515000000006 C 372.38325999999995 346.70187000000004 372.73807999999997 346.8783000000001 373.01295999999996 347.10444000000007 C 373.28783999999996 347.33058000000005 373.48767 347.59767000000005 373.61244 347.90569000000005 C 373.73721 348.21371000000005 373.79958999999997 348.5490300000001 373.79958999999997 348.91164000000003 C 373.79958999999997 349.18847000000005 373.76255 349.44971000000004 373.68846999999994 349.69535 C 373.61438999999996 349.94099 373.5042399999999 350.16811 373.3580299999999 350.37671 C 373.21181999999993 350.58531 373.0324599999999 350.77149000000003 372.8199599999999 350.93525 C 372.60745999999995 351.09901 372.36279999999994 351.23353 372.0859699999999 351.3388 C 372.2185399999999 351.40508 372.3423299999999 351.48696 372.4573499999999 351.58444 C 372.5723699999999 351.68192 372.6727699999999 351.80084 372.7585499999999 351.9412 L 374.5715999999999 354.90641999999997 L 372.78193999999985 354.90641999999997 C 372.45051999999987 354.90641999999997 372.21267999999986 354.78164999999996 372.06841999999983 354.53211 L 370.65306999999984 352.05816999999996 C 370.5906899999998 351.94899999999996 370.51757999999984 351.87102 370.43374999999986 351.82422999999994 C 370.3499199999999 351.77743999999996 370.2319699999999 351.75404999999995 370.07990999999987 351.75404999999995 z M 369.57692 350.39134 L 370.37231999999995 350.39134 C 370.64134999999993 350.39134 370.87041999999997 350.35722000000004 371.05952999999994 350.28899 C 371.24862999999993 350.22076 371.40361999999993 350.12621 371.52448999999996 350.00533 C 371.64536 349.88446 371.73308999999995 349.74312000000003 371.78767999999997 349.58131000000003 C 371.84227 349.4195 371.86956 349.24502 371.86956 349.05786 C 371.86956 348.68355 371.74771999999996 348.39112 371.50403 348.18058 C 371.26034 347.97003 370.88311 347.86476000000005 370.37233 347.86476000000005 L 369.57693 347.86476000000005 z" stroke-linecap="round" />
</g>
		<g transform="matrix(1 0 0 1 108.14 115.65)"  >
<path style="stroke: none; stroke-width: 1; stroke-dasharray: none; stroke-linecap: butt; stroke-dashoffset: 0; stroke-linejoin: miter; stroke-miterlimit: 10; fill: rgb(242,205,0); fill-rule: nonzero; opacity: 1;" vector-effect="non-scaling-stroke"  transform=" translate(-383.14, -350.65)" d="M 382.54464 353.32731 L 385.70286 353.32731 L 385.70286 354.90642 L 380.56782999999996 354.90642 L 380.56782999999996 346.38507000000004 L 382.54463999999996 346.38507000000004 z" stroke-linecap="round" />
</g>
		<g transform="matrix(1 0 0 1 120.84 115.65)"  >
<path style="stroke: none; stroke-width: 1; stroke-dasharray: none; stroke-linecap: butt; stroke-dashoffset: 0; stroke-linejoin: miter; stroke-miterlimit: 10; fill: rgb(242,205,0); fill-rule: nonzero; opacity: 1;" vector-effect="non-scaling-stroke"  transform=" translate(-395.84, -350.65)" d="M 399.71018 350.64282 C 399.71018 351.25886999999994 399.60393 351.82714999999996 399.39142999999996 352.34767 C 399.17893 352.86818999999997 398.87967999999995 353.31853 398.49368 353.69869 C 398.10767999999996 354.07885 397.64270999999997 354.37517 397.0988 354.58767 C 396.55487999999997 354.80017 395.95151 354.90642 395.28866999999997 354.90642 L 391.97839 354.90642 L 391.97839 346.38507000000004 L 395.28866999999997 346.38507000000004 C 395.95151 346.38507000000004 396.55487999999997 346.49229 397.0988 346.70674 C 397.64272 346.92119 398.10767999999996 347.21751 398.49368 347.59572000000003 C 398.87968 347.97393000000005 399.17894 348.42329 399.39142999999996 348.94381000000004 C 399.60392999999993 349.46433 399.71018 350.03067000000004 399.71018 350.64282000000003 z M 397.68658 350.64282 C 397.68658 350.22171999999995 397.63199 349.84157 397.52281999999997 349.50235 C 397.41364999999996 349.16312999999997 397.25670999999994 348.87557999999996 397.05201 348.63969 C 396.84731 348.4038 396.5968 348.22249 396.30047 348.09576999999996 C 396.00414 347.96905 395.66688 347.90568999999994 395.28867 347.90568999999994 L 393.9669 347.90568999999994 L 393.9669 353.38578999999993 L 395.28867 353.38578999999993 C 395.66688000000005 353.38578999999993 396.00414 353.32242999999994 396.30047 353.1957099999999 C 396.59680000000003 353.0689899999999 396.84731 352.8876899999999 397.05201 352.6517899999999 C 397.25671 352.4158999999999 397.41365 352.12833999999987 397.52281999999997 351.7891299999999 C 397.63199 351.4499099999999 397.68658 351.0678099999999 397.68658 350.6428099999999 z" stroke-linecap="round" />
</g>
		<g transform="matrix(1 0 0 1 -166.86 82.05)"  >
<path style="stroke: none; stroke-width: 1; stroke-dasharray: none; stroke-linecap: butt; stroke-dashoffset: 0; stroke-linejoin: miter; stroke-miterlimit: 10; fill: rgb(242,205,0); fill-rule: nonzero; opacity: 1;" vector-effect="non-scaling-stroke"  transform=" translate(-108.14, -317.05)" d="M 110.99046 331.88892 L 110.99046 307.78159 L 118.80044 307.78159 L 118.80044 302.20303 L 97.48239 302.20303 L 97.48239 307.78159 L 104.81420999999999 307.78159 L 104.81420999999999 331.88892 z" stroke-linecap="round" />
</g>
		<g transform="matrix(1 0 0 1 -130.96 82.05)"  >
<path style="stroke: none; stroke-width: 1; stroke-dasharray: none; stroke-linecap: butt; stroke-dashoffset: 0; stroke-linejoin: miter; stroke-miterlimit: 10; fill: rgb(242,205,0); fill-rule: nonzero; opacity: 1;" vector-effect="non-scaling-stroke"  transform=" translate(-144.04, -317.05)" d="M 153.24802 331.88892 L 153.24802 326.31036 L 141.01504 326.31036 L 141.01504 318.89885 L 152.17215 318.89885 L 152.17215 313.32029 L 141.01504 313.32029 L 141.01504 307.78158 L 150.61813 307.78158 L 150.61813 302.20302000000004 L 134.83879000000002 302.20302000000004 L 134.83879000000002 331.88891 z" stroke-linecap="round" />
</g>
		<g transform="matrix(1 0 0 1 -90.83 82.05)"  >
<path style="stroke: none; stroke-width: 1; stroke-dasharray: none; stroke-linecap: butt; stroke-dashoffset: 0; stroke-linejoin: miter; stroke-miterlimit: 10; fill: rgb(242,205,0); fill-rule: nonzero; opacity: 1;" vector-effect="non-scaling-stroke"  transform=" translate(-184.17, -317.05)" d="M 193.19447 318.77932 C 192.35769 323.24216 188.61208 326.46976 184.14924 326.46976 C 179.16839 326.46976 175.22355 322.28584 175.22355 317.06591000000003 C 175.22355 311.80613000000005 179.16839 307.58237 184.14924 307.58237 C 187.21744999999999 307.58237 190.2458 309.13640000000004 192.39753 312.32414 L 197.219 308.89731 C 194.54926 304.55401 189.6481 301.68503 184.10939 301.68503 C 175.66186 301.68503 168.8879 308.57853 168.8879 317.0659 C 168.8879 325.55327 175.66186 332.40693 184.14923 332.40693 C 192.03889999999998 332.40693 198.57378 326.39006 199.45040999999998 318.77932 z" stroke-linecap="round" />
</g>
		<g transform="matrix(1 0 0 1 -45.51 82.03)"  >
<path style="stroke: none; stroke-width: 1; stroke-dasharray: none; stroke-linecap: butt; stroke-dashoffset: 0; stroke-linejoin: miter; stroke-miterlimit: 10; fill: rgb(242,205,0); fill-rule: nonzero; opacity: 1;" vector-effect="non-scaling-stroke"  transform=" translate(-229.49, -317.03)" d="M 236.9662 319.37702 L 215.84738 301.64518000000004 L 215.84738 331.88892000000004 L 222.02364 331.88892000000004 L 222.02364 314.83448000000004 L 243.14246 332.40693000000005 L 243.14246 302.20304000000004 L 236.9662 302.20304000000004 z" stroke-linecap="round" />
</g>
		<g transform="matrix(1 0 0 1 0.38 82.05)"  >
<path style="stroke: none; stroke-width: 1; stroke-dasharray: none; stroke-linecap: butt; stroke-dashoffset: 0; stroke-linejoin: miter; stroke-miterlimit: 10; fill: rgb(242,205,0); fill-rule: nonzero; opacity: 1;" vector-effect="non-scaling-stroke"  transform=" translate(-275.38, -317.05)" d="M 275.39847 332.40693 C 283.88584 332.40693 290.73949999999996 325.51342999999997 290.73949999999996 317.02606 C 290.73949999999996 308.53869 283.88584999999995 301.68503 275.35862999999995 301.68503 C 266.87125999999995 301.68503 260.01759999999996 308.53868 260.01759999999996 317.02606 C 260.01759999999996 325.51342999999997 266.87125 332.40693 275.39847 332.40693 z M 275.35862 307.58236 C 280.37931999999995 307.58236 284.40385 311.80612 284.40385 317.02606 C 284.40385 322.32568999999995 280.41916999999995 326.46975999999995 275.39847 326.46975999999995 C 270.29807999999997 326.46975999999995 266.35323999999997 322.32568999999995 266.35323999999997 317.02606 C 266.35323999999997 311.80613 270.29807999999997 307.58236 275.35862 307.58236 z" stroke-linecap="round" />
</g>
		<g transform="matrix(1 0 0 1 48.43 81.79)"  >
<path style="stroke: none; stroke-width: 1; stroke-dasharray: none; stroke-linecap: butt; stroke-dashoffset: 0; stroke-linejoin: miter; stroke-miterlimit: 10; fill: rgb(242,205,0); fill-rule: nonzero; opacity: 1;" vector-effect="non-scaling-stroke"  transform=" translate(-323.43, -316.79)" d="M 323.43382 313.67892 L 307.61463000000003 301.68503 L 307.61463000000003 331.88892 L 313.79089000000005 331.88892 L 313.79089000000005 313.9977 L 323.43382 320.97089 L 333.07675 313.9977 L 333.07675 331.88892 L 339.25301 331.88892 L 339.25301 301.68503 z" stroke-linecap="round" />
</g>
		<g transform="matrix(1 0 0 1 94.97 81.79)"  >
<path style="stroke: none; stroke-width: 1; stroke-dasharray: none; stroke-linecap: butt; stroke-dashoffset: 0; stroke-linejoin: miter; stroke-miterlimit: 10; fill: rgb(242,205,0); fill-rule: nonzero; opacity: 1;" vector-effect="non-scaling-stroke"  transform=" translate(-369.97, -316.79)" d="M 378.92052 331.88892 L 385.65463 331.88892 L 369.95498 301.68503 L 354.29517999999996 331.88892 L 360.67067 331.88892 L 362.58331999999996 327.90423999999996 L 376.96801999999997 327.90423999999996 z M 369.71591 313.08122 L 374.25845 322.32568 L 365.25307 322.32568 z" stroke-linecap="round" />
</g>
		<g transform="matrix(1 0 0 1 133.53 82.05)"  >
<path style="stroke: none; stroke-width: 1; stroke-dasharray: none; stroke-linecap: butt; stroke-dashoffset: 0; stroke-linejoin: miter; stroke-miterlimit: 10; fill: rgb(242,205,0); fill-rule: nonzero; opacity: 1;" vector-effect="non-scaling-stroke"  transform=" translate(-408.53, -317.05)" d="M 407.47077 318.73947 C 410.33974 319.05823999999996 411.93361000000004 320.53258 411.93361000000004 322.92339 C 411.93361000000004 324.83603999999997 410.33974000000006 326.46976 408.30755000000005 326.46976 C 406.55429000000004 326.46976 405.15965000000006 326.03144000000003 403.8048600000001 324.31803 L 398.7044700000001 328.06363000000005 C 401.53359000000006 331.17168000000004 404.92057000000005 332.40693000000005 408.3075600000001 332.40693000000005 C 413.52749000000006 332.40693000000005 418.3489600000001 328.26286000000005 418.3489600000001 322.48507000000006 C 418.3489600000001 316.7471300000001 414.1650400000001 313.3203000000001 409.1045000000001 313.00153000000006 C 405.9566000000001 312.80230000000006 404.9604300000001 311.5670400000001 404.9604300000001 310.21225000000004 C 404.9604300000001 308.57853000000006 406.07614000000007 307.58236000000005 407.7098600000001 307.58236000000005 C 408.7458800000001 307.58236000000005 410.0608200000001 308.21991 410.8577600000001 309.05669000000006 L 415.7190700000001 305.51032000000004 C 413.4478000000001 302.80074 410.6585200000001 301.68502 407.7098600000001 301.68502 C 403.6056400000001 301.68502 398.9834100000001 305.23139000000003 398.9834100000001 310.25209 C 398.9834100000001 314.91417 402.3305400000001 318.14176000000003 407.4707800000001 318.73946 z" stroke-linecap="round" />
</g>
		<g transform="matrix(1 0 0 1 167.7 82.05)"  >
<path style="stroke: none; stroke-width: 1; stroke-dasharray: none; stroke-linecap: butt; stroke-dashoffset: 0; stroke-linejoin: miter; stroke-miterlimit: 10; fill: rgb(242,205,0); fill-rule: nonzero; opacity: 1;" vector-effect="non-scaling-stroke"  transform=" translate(-442.7, -317.05)" d="M 441.63943 318.73947 C 444.5084 319.05823999999996 446.10227 320.53258 446.10227 322.92339 C 446.10227 324.83603999999997 444.5084 326.46976 442.47621 326.46976 C 440.72294999999997 326.46976 439.32831 326.03144000000003 437.97352 324.31803 L 432.87313 328.06363000000005 C 435.70225 331.17168000000004 439.08923 332.40693000000005 442.47622 332.40693000000005 C 447.69615 332.40693000000005 452.51762 328.26286000000005 452.51762 322.48507000000006 C 452.51762 316.7471300000001 448.3337 313.3203000000001 443.27316 313.00153000000006 C 440.12526 312.80230000000006 439.12909 311.5670400000001 439.12909 310.21225000000004 C 439.12909 308.57853000000006 440.2448 307.58236000000005 441.87852000000004 307.58236000000005 C 442.91454000000004 307.58236000000005 444.22948 308.21991 445.02642000000003 309.05669000000006 L 449.88773000000003 305.51032000000004 C 447.61646 302.80074 444.82718000000006 301.68502 441.87852000000004 301.68502 C 437.77430000000004 301.68502 433.15207000000004 305.23139000000003 433.15207000000004 310.25209 C 433.15207000000004 314.91417 436.49920000000003 318.14176000000003 441.63944000000004 318.73946 z" stroke-linecap="round" />
</g>
		<g transform="matrix(1 0 0 1 0 -46.64)"  >
<path style="stroke: none; stroke-width: 1; stroke-dasharray: none; stroke-linecap: butt; stroke-dashoffset: 0; stroke-linejoin: miter; stroke-miterlimit: 10; fill: rgb(242,205,0); fill-rule: evenodd; opacity: 1;" vector-effect="non-scaling-stroke"  transform=" translate(-275, -188.36)" d="M 275 115 L 254.62315 126.90008 L 275 138.63714 L 254.62315 150.37419999999997 L 234.24630000000002 138.63714 L 213.70644000000001 150.37419999999997 L 234.24630000000002 162.27427999999998 L 254.62315 150.37419999999997 L 275 162.27427999999998 L 254.62315 174.01133999999996 L 275 185.74839999999995 L 295.37685 174.01133999999996 L 275 162.27427999999998 L 295.37685 150.37419999999997 L 275 138.63714 L 295.37685 126.90007999999999 z M 336.29356 150.3742 L 315.75370000000004 138.63714 L 295.37685000000005 150.37419999999997 L 315.75370000000004 162.27427999999998 z M 210.44615 155.7537 L 210.44615 179.39084 L 230.98601 191.1279 L 230.98601 214.60203 L 210.44615 202.86497000000003 L 210.44615 226.50211000000002 L 230.98601 238.23917 L 230.98601 214.60203 L 251.36285999999998 226.50211000000002 L 251.36285999999998 249.97624000000002 L 271.73971 261.7133 L 271.73971 238.23917 L 251.36286 226.50211000000002 L 251.36286 202.86497000000003 L 271.73971 214.60203 L 271.73971 191.1279 L 251.36286 179.39084000000003 L 251.36286 202.86497000000003 L 230.98601000000002 191.12791000000004 L 230.98601000000002 167.49077000000005 z M 319.01399 191.1279 L 339.55384999999995 179.39084000000003 L 339.55384999999995 155.75370000000004 L 319.01399 167.49076000000002 z M 319.01399 214.60203 L 319.01399 191.1279 L 298.63714 202.86496 L 298.63714 179.39083 L 278.26029 191.12788999999998 L 278.26029 214.60201999999998 L 298.63714 202.86496 L 298.63714 226.50209999999998 L 278.26029 238.23915999999997 L 278.26029 261.71329 L 298.63714 249.97623 L 298.63714 226.50209999999998 z M 319.01399 214.60203 L 339.55384999999995 202.86497000000003 L 339.55384999999995 226.50211000000002 L 319.01399 238.23917 z" stroke-linecap="round" />
</g>
		<g transform="matrix(1 0 0 1 -154.49 142.87)"  >
<path style="stroke: none; stroke-width: 1; stroke-dasharray: none; stroke-linecap: butt; stroke-dashoffset: 0; stroke-linejoin: miter; stroke-miterlimit: 4; fill: rgb(0,0,0); fill-rule: nonzero; opacity: 0.040000010281801224;" vector-effect="non-scaling-stroke"  transform=" translate(-120.51, -377.87)" d="M 129.52 370.3 C 130.85469002096735 371.9014152508758 131.74448208859528 373.825849257606 132.10000000000002 375.88 C 132.26209924306502 376.87145310121815 132.29905501935622 377.8793379091597 132.21000000000004 378.88 C 132.12204690184697 379.87989563746567 131.9069798916472 380.8644992935365 131.57000000000005 381.81 C 131.21481408975043 382.77171812052427 130.74116447466537 383.6854251794118 130.16000000000005 384.53000000000003 C 129.55828751957097 385.3961823176146 128.8417412699733 386.17664583830316 128.03000000000006 386.85 C 127.22767766880379 387.526339829712 126.3401072165711 388.0945193995125 125.39000000000006 388.54 C 124.45861890430575 388.95299525582 123.48191620255464 389.2550682563616 122.48000000000006 389.44 C 121.4884825943438 389.60067826000613 120.48118334525535 389.64097022996964 119.48000000000006 389.56 C 118.4806820749891 389.4682840454965 117.49654459370866 389.2533188618721 116.55000000000005 388.92 C 115.58745080467376 388.5796074914791 114.67314829073945 388.11573342190957 113.83000000000006 387.54 C 112.1036327443428 386.3174535014202 110.72512698882683 384.6666928591898 109.83000000000006 382.75 C 109.40868188268828 381.8191086837417 109.1095337222364 380.8376338202367 108.94000000000005 379.83 C 108.7726826452176 378.8392332444426 108.72901535334638 377.83152650895295 108.81000000000006 376.83 C 108.89583205740156 375.8330355423754 109.11096992912928 374.8514690026176 109.45000000000006 373.90999999999997 C 110.1524698336822 371.96236427464333 111.36044939575751 370.2366791859643 112.95000000000006 368.90999999999997 C 113.75753986721962 368.2258711524062 114.65610961015024 367.65711352485835 115.62000000000006 367.21999999999997 C 116.54907140155728 366.7895544339029 117.53087815628051 366.48358041102676 118.54000000000005 366.30999999999995 C 119.52940484595327 366.1293350820261 120.53932608662386 366.08893823239924 121.54000000000005 366.18999999999994 C 123.56868962234645 366.3521729589324 125.51979690732266 367.04161016210423 127.20000000000006 368.18999999999994 C 128.07221041777103 368.7876857493986 128.85937695153962 369.50084517315474 129.54000000000005 370.30999999999995 M 128.14000000000004 379.06999999999994 C 127.81253559257388 379.88246155711437 127.40379169528968 380.65974503391715 126.92000000000004 381.38999999999993 C 126.41296528479958 382.1378736957971 125.80371821817161 382.8110748743916 125.11000000000004 383.38999999999993 C 124.40854852040295 383.9903906341423 123.60146975751441 384.45496958588905 122.73000000000005 384.75999999999993 C 121.04065100873758 385.3557175071203 119.17579939004473 385.1878443672771 117.62000000000005 384.29999999999995 C 115.83723838766858 383.2744988019927 114.47377549485594 381.6525091788546 113.77000000000005 379.71999999999997 C 113.47829972162239 378.8653681296698 113.36264325697313 377.9605263768255 113.43000000000005 377.05999999999995 C 113.50679566375659 376.19102007032114 113.76938729263783 375.3486806893644 114.20000000000005 374.5899999999999 C 114.64178412405698 373.7803794121871 115.23603720461394 373.0638799836298 115.95000000000005 372.4799999999999 C 116.29371484642552 372.1845553601092 116.65796310410082 371.9138754622037 117.04000000000005 371.6699999999999 C 117.39634301729102 371.43113034960265 117.77081754498423 371.2204884277752 118.16000000000005 371.0399999999999 C 118.54402100263306 370.85576939244913 118.94190946315786 370.701963769053 119.35000000000004 370.5799999999999 C 119.7830235280595 370.43301042529663 120.22366429475359 370.3094974831172 120.67000000000004 370.2099999999999 L 122.67000000000004 372.5899999999999 C 122.1470184093985 372.6147832332492 121.62604420622745 372.671556063082 121.11000000000004 372.75999999999993 C 120.69203417404891 372.83328939629416 120.28068978534449 372.94030582262377 119.88000000000004 373.0799999999999 C 119.52766466316197 373.20129990465034 119.19175996211654 373.3658932081626 118.88000000000004 373.56999999999994 C 118.55061414612072 373.7651131132635 118.23937013012859 373.98934267317185 117.95000000000003 374.23999999999995 C 117.4765738253588 374.6207581247369 117.08534478237657 375.09363496799364 116.80000000000003 375.62999999999994 C 116.53865415009788 376.11839270415715 116.3851969988592 376.6571978129507 116.35000000000002 377.2099999999999 C 116.32582656370951 377.7653091089882 116.41426783653314 378.3197678578441 116.61000000000003 378.8399999999999 C 117.08842849413097 380.0000375465387 117.91242239730556 380.98464043084056 118.97000000000003 381.6599999999999 C 119.45533988224285 381.93384201386056 119.98798959054368 382.11365369882833 120.54000000000002 382.1899999999999 C 121.0859464297388 382.24769027468403 121.6379225285151 382.1897668569112 122.16000000000003 382.01999999999987 C 122.73580874644854 381.82730599135385 123.26892675848289 381.5250925959968 123.73000000000002 381.1299999999999 C 124.02083988622334 380.88197049830273 124.29791903034817 380.618244565943 124.56000000000002 380.33999999999986 C 124.80700581045916 380.0523491892415 125.02474719616306 379.7408115143113 125.21000000000002 379.40999999999985 C 125.41350774333854 379.0415870274365 125.593857311127 378.6608490509942 125.75000000000003 378.26999999999987 C 125.928071144152 377.7831519576765 126.07503377409357 377.285483051738 126.19000000000003 376.77999999999986 L 128.19000000000003 379.10999999999984 M 113.73000000000002 383.65999999999985 C 114.49703773929214 384.58034894072966 115.44276683559558 385.3355714564828 116.51000000000002 385.8799999999999 C 117.5364664485992 386.40083578541095 118.65331335512317 386.7199349015607 119.80000000000003 386.8199999999999 C 120.94320185709566 386.91018779767927 122.09316960887148 386.78467509320814 123.19000000000003 386.4499999999999 C 124.33173979537614 386.1062550503872 125.39041389771698 385.5309626925235 126.30000000000003 384.7599999999999 C 127.22155106618965 383.99414031225365 127.97698625936589 383.0481448901681 128.52000000000004 381.9799999999999 C 129.0582562858314 380.9563852744282 129.3975804233197 379.8400088620916 129.52000000000004 378.6899999999999 C 129.8443902571853 375.05881252988434 127.93386438568416 371.59375939647856 124.69000000000004 369.9299999999999 C 122.60572808242156 368.87352557145664 120.19226509608836 368.6691163735057 117.96000000000004 369.3599999999999 C 115.65604248468777 370.0754176425214 113.73576087705943 371.685860191508 112.63000000000004 373.8299999999999 C 111.57266301384416 375.90687297801327 111.36813721904426 378.31453628171033 112.06000000000004 380.5399999999999 C 112.40758911588385 381.6852083270502 112.9861548280636 382.747046575286 113.76000000000005 383.6599999999999" stroke-linecap="round" />
</g>
		<g transform="matrix(1 0 0 1 -132.89 125.15)"  >
<path style="stroke: none; stroke-width: 1; stroke-dasharray: none; stroke-linecap: butt; stroke-dashoffset: 0; stroke-linejoin: miter; stroke-miterlimit: 4; fill: rgb(0,0,0); fill-rule: nonzero; opacity: 0.040000010281801224;" vector-effect="non-scaling-stroke"  transform=" translate(-142.11, -360.15)" d="M 147 349 C 146.52 349.12 145.91 349.31 145.18 349.57 C 144.36277584050666 349.8603900377318 143.56163597341728 350.1941983156857 142.78 350.57 C 141.8277370379401 350.995171993143 140.89965968792004 351.4725642990886 139.99999999999997 352 C 139.04603945899404 352.57284892082214 138.1397751604502 353.2216137692262 137.29 353.94 C 136.59 354.53 136.01 355.05 135.54999999999998 355.51 C 135.16142552666344 355.8963654103454 134.7942134702009 356.3036369638766 134.45 356.73 C 134.2130606412908 357.00889067049815 134.01462271196985 357.3183193060495 133.85999999999999 357.65000000000003 C 133.75577835062586 357.8514331723133 133.6816565973133 358.06706009104084 133.64 358.29 C 133.60792898894573 358.4450253638741 133.60792898894573 358.604974636126 133.64 358.76000000000005 C 133.69083443796325 358.86206321751513 133.75109648527146 358.9591520715117 133.82 359.05000000000007 C 134.07256388166388 359.3297478587575 134.44617529972328 359.4679840834395 134.82 359.4200000000001 C 135.33871274343528 359.3650514934324 135.84706590542714 359.2371215586265 136.32999999999998 359.0400000000001 Q 137.2 358.69000000000005 138.27999999999997 358.1400000000001 L 140.53999999999996 356.9600000000001 Q 141.73999999999995 356.3100000000001 143.02999999999997 355.6700000000001 C 143.89999999999998 355.2300000000001 144.75999999999996 354.8400000000001 145.61999999999998 354.50000000000006 C 146.46610808190187 354.1679630510054 147.3350201925154 353.89726350885275 148.21999999999997 353.69000000000005 C 149.02333437352033 353.48371929118326 149.8507190395028 353.3861820744617 150.67999999999998 353.40000000000003 C 151.45049533187537 353.42379710349513 152.20994030666887 353.5899256917312 152.92 353.89000000000004 C 153.65732971636692 354.22373253554525 154.3050396122889 354.7275068990402 154.80999999999997 355.36000000000007 C 155.47947603352534 356.10647354469995 155.96266014431788 357.0008781753159 156.21999999999997 357.9700000000001 C 156.43979040502026 358.81965443228114 156.4705124867169 359.7071812368512 156.30999999999997 360.5700000000001 C 156.14827245875898 361.4531489040329 155.84432324439987 362.30420670423837 155.40999999999997 363.0900000000001 C 154.93472682646254 363.92235101765124 154.3929633701635 364.7149308889035 153.78999999999996 365.4600000000001 C 153.1679927949221 366.2169488624409 152.50006793062684 366.9349680915583 151.78999999999996 367.61000000000007 C 151.06999999999996 368.2800000000001 150.37999999999997 368.9000000000001 149.69999999999996 369.4800000000001 C 148.0461332937129 370.8814509218906 146.26124005435705 372.12049500924826 144.36999999999995 373.18000000000006 C 142.80003951653904 374.07609889546535 141.15760215597254 374.83877856595245 139.45999999999995 375.46000000000004 L 135.84999999999994 371.16 C 137.72213929564268 370.7802590792295 139.5349417968768 370.1513275992095 141.23999999999992 369.29 C 143.1751843639877 368.3223297011268 144.98799751516654 367.1272158459052 146.63999999999993 365.73 C 147.48989750484074 365.0349491167933 148.28553887042494 364.27608109163526 149.01999999999992 363.46000000000004 C 149.47979259765034 362.9424751917178 149.87594710055404 362.37174412821247 150.19999999999993 361.76000000000005 C 150.39457348868905 361.39453229038793 150.48779822687064 360.9836528887728 150.46999999999994 360.57000000000005 C 150.45327605673205 360.30077350241874 150.35568783772584 360.04286178075944 150.18999999999994 359.83000000000004 C 149.94159397417252 359.5400771218531 149.5709269130524 359.3843969561826 149.18999999999994 359.41 C 148.65677173969033 359.4266543087438 148.13124075688728 359.5419320727135 147.63999999999993 359.75 C 146.95378907463387 359.9967393876545 146.28551872599786 360.29077834105436 145.63999999999993 360.63 C 144.91999999999993 361 144.15999999999994 361.4 143.36999999999992 361.84 L 140.91999999999993 363.14 C 140.06999999999994 363.59 139.21999999999994 363.99 138.35999999999993 364.34999999999997 C 137.53129292095872 364.6872021881066 136.68310264696896 364.9743847218197 135.81999999999994 365.21 C 135.02618559035585 365.41590333026414 134.21005709240194 365.5233770419288 133.38999999999993 365.53 C 132.6342461233213 365.525782834451 131.88670968584708 365.3728776540585 131.18999999999994 365.08 C 130.4523821421509 364.7559918253224 129.80398125141906 364.258541406507 129.29999999999995 363.63 C 128.68660925277263 362.9361336030083 128.23869305258108 362.1121045629612 127.98999999999995 361.21999999999997 C 127.79387055743736 360.4317185007118 127.75984987568698 359.61182007052776 127.88999999999996 358.80999999999995 C 128.03728389744515 357.9800622147926 128.31043174099028 357.1774796621538 128.69999999999996 356.42999999999995 C 129.12392559165264 355.63742344376067 129.62287574981548 354.88732387712656 130.18999999999997 354.18999999999994 C 130.7638628916011 353.4692218594498 131.38170634221322 352.784584522285 132.03999999999996 352.13999999999993 Q 133.03999999999996 351.13999999999993 134.03999999999996 350.36999999999995 C 134.73999999999995 349.78 135.47999999999996 349.21999999999997 136.26999999999995 348.66999999999996 C 137.05999999999995 348.11999999999995 137.88999999999996 347.60999999999996 138.70999999999995 347.14 C 139.52999999999994 346.67 140.33999999999995 346.22999999999996 141.13999999999996 345.84 C 141.93999999999997 345.45 142.71999999999997 345.09 143.43999999999997 344.84 L 147 349" stroke-linecap="round" />
</g>
		<g transform="matrix(1 0 0 1 -104.81 101.17)"  >
<path style="stroke: none; stroke-width: 1; stroke-dasharray: none; stroke-linecap: butt; stroke-dashoffset: 0; stroke-linejoin: miter; stroke-miterlimit: 4; fill: rgb(0,0,0); fill-rule: nonzero; opacity: 0.040000010281801224;" vector-effect="non-scaling-stroke"  transform=" translate(-170.19, -336.17)" d="M 186.76 337.57 L 176.16 324.94 L 180.07999999999998 343.18 L 175.42 347.09000000000003 L 158.14999999999998 340.09000000000003 L 168.74999999999997 352.72 L 163.88999999999996 356.79 L 148.79999999999995 338.79 L 155.38999999999996 333.25 L 174.07999999999996 340.77 L 169.92999999999995 321.06 L 176.49999999999994 315.54 L 191.58999999999995 333.54 L 186.75999999999993 337.59000000000003" stroke-linecap="round" />
</g>
		<g transform="matrix(1 0 0 1 -71.16 80.78)"  >
<path style="stroke: none; stroke-width: 1; stroke-dasharray: none; stroke-linecap: butt; stroke-dashoffset: 0; stroke-linejoin: miter; stroke-miterlimit: 4; fill: rgb(0,0,0); fill-rule: nonzero; opacity: 0.040000010281801224;" vector-effect="non-scaling-stroke"  transform=" translate(-203.84, -315.78)" d="M 208.84 313.24 L 198.84 321.66 L 200 326.48 L 194.56 331 L 188.88 305.11 L 194.29999999999998 300.56 L 218.80999999999997 310.65 L 213.39 315.2 L 208.83999999999997 313.2 M 197.60999999999999 316.65 L 204.17999999999998 311.13 L 195.34999999999997 307.26 L 197.60999999999996 316.65" stroke-linecap="round" />
</g>
		<g transform="matrix(1 0 0 1 -52.28 57.61)"  >
<path style="stroke: none; stroke-width: 1; stroke-dasharray: none; stroke-linecap: butt; stroke-dashoffset: 0; stroke-linejoin: miter; stroke-miterlimit: 4; fill: rgb(0,0,0); fill-rule: nonzero; opacity: 0.040000010281801224;" vector-effect="non-scaling-stroke"  transform=" translate(-222.72, -292.61)" d="M 227.49 281.38 C 227.01000000000002 281.5 226.4 281.69 225.67000000000002 281.95 C 224.85277584050667 282.2403900377318 224.0516359734173 282.5741983156857 223.27 282.95 C 222.34190943724175 283.3865450261198 221.4403471333717 283.87739561378237 220.57000000000002 284.42 C 219.61603945899407 284.99284892082215 218.70977516045022 285.64161376922624 217.86 286.36 C 217.16000000000003 286.95 216.58 287.47 216.12 287.93 C 215.7287105124232 288.3137709484686 215.3613527395302 288.7212041147681 215.02 289.15000000000003 C 214.78562895879995 289.42715281539347 214.58737850143976 289.7329289445422 214.43 290.06000000000006 C 214.32690007677996 290.2654250488466 214.25285810722767 290.48418541343295 214.21 290.71000000000004 C 214.17792898894575 290.8650253638741 214.17792898894575 291.024974636126 214.21 291.18000000000006 C 214.26083443796327 291.28206321751514 214.32109648527148 291.3791520715117 214.39000000000001 291.4700000000001 C 214.6425638816639 291.74974785875753 215.01617529972327 291.8879840834395 215.39000000000001 291.8400000000001 C 215.9087127434353 291.78505149343243 216.41706590542717 291.6571215586265 216.9 291.4600000000001 Q 217.77 291.1200000000001 218.9 290.5600000000001 L 221.16 289.3800000000001 Q 222.35999999999999 288.7400000000001 223.65 288.0900000000001 C 224.52 287.6500000000001 225.38 287.2600000000001 226.24 286.9200000000001 C 227.0861080819019 286.58796305100543 227.95502019251543 286.31726350885276 228.84 286.11000000000007 C 229.64333437352036 285.9037192911833 230.47071903950282 285.80618207446173 231.3 285.82000000000005 C 232.07098655522688 285.83978441665806 232.83116932897582 286.00607439841565 233.54000000000002 286.31000000000006 C 234.27687286552646 286.63988906729617 234.92470393825332 287.1403300017836 235.43 287.77000000000004 C 236.09579733115268 288.51905605941965 236.57848366138728 289.4125392664497 236.84 290.38000000000005 C 237.05901546016187 291.23316500060525 237.08972614786325 292.1237749439457 236.93 292.99000000000007 C 236.76827245875901 293.87314890403286 236.4643232443999 294.7242067042383 236.03 295.51000000000005 C 235.55698063752544 296.3429792368328 235.01154142824 297.13269490181045 234.4 297.87000000000006 C 233.78367922483986 298.63503277823037 233.11543344903566 299.35673821609896 232.4 300.0300000000001 C 231.68 300.7000000000001 230.99 301.3200000000001 230.3 301.8900000000001 C 228.65137806493615 303.29652661018326 226.86962605159817 304.53906419843213 224.98000000000002 305.6000000000001 C 223.40764069696885 306.4981792469758 221.76170301018087 307.26093085792627 220.06000000000003 307.88000000000005 L 216.46000000000004 303.58000000000004 C 218.33213929564278 303.2002590792295 220.1449417968769 302.5713275992095 221.85000000000002 301.71000000000004 C 223.7851843639878 300.74232970112683 225.59799751516664 299.5472158459052 227.25000000000003 298.15000000000003 C 228.09989750484084 297.45494911679333 228.89553887042504 296.6960810916353 229.63000000000002 295.88000000000005 C 230.08979259765044 295.3624751917178 230.48594710055414 294.7917441282125 230.81000000000003 294.18000000000006 C 230.97530233967976 293.81001074995345 231.04080950898617 293.403176751103 231 293 C 230.9832760567321 292.7307735024187 230.8856878377259 292.4728617807594 230.72 292.26 C 230.47159397417258 291.970077121853 230.10092691305246 291.8143969561826 229.72 291.84 C 229.18677173969039 291.85665430874377 228.66124075688734 291.97193207271346 228.17 292.17999999999995 C 227.48466530769068 292.4289290706704 226.8165411176845 292.7229037142732 226.17 293.05999999999995 C 225.45999999999998 293.42999999999995 224.7 293.8299999999999 223.91 294.2699999999999 L 221.45 295.56999999999994 C 220.60999999999999 296.00999999999993 219.75 296.41999999999996 218.89999999999998 296.7799999999999 C 218.06964773818785 297.1127660169554 217.22171435843055 297.3998615707315 216.35999999999999 297.63999999999993 C 215.59053076825782 297.8538068212129 214.79821960473092 297.9746678461577 214 298 C 213.24424612332137 297.995782834451 212.49670968584715 297.84287765405855 211.8 297.55 C 211.06238214215097 297.2259918253224 210.41398125141913 296.728541406507 209.91000000000003 296.1 C 209.2966092527727 295.4061336030083 208.84869305258115 294.5821045629612 208.60000000000002 293.69 C 208.39755126535755 292.9026388023087 208.3634760641716 292.0814264537275 208.50000000000003 291.28 C 208.6428780016322 290.44893489161336 208.91625286981713 289.64568527892186 209.31000000000003 288.9 C 209.73618803811698 288.10563799063135 210.2349819579171 287.35242569563115 210.80000000000004 286.65 C 211.3752529347095 285.9461859924715 211.99307644514437 285.27826868389326 212.65000000000003 284.65 Q 213.65000000000003 283.65 214.65000000000003 282.88 C 215.35000000000002 282.29 216.09000000000003 281.73 216.88000000000002 281.18 C 217.67000000000002 280.63 218.50000000000003 280.12 219.32000000000002 279.65000000000003 C 220.14000000000001 279.18000000000006 220.95000000000002 278.74 221.75000000000003 278.34000000000003 C 222.55000000000004 277.94000000000005 223.33000000000004 277.6 224.05000000000004 277.34000000000003 L 227.55000000000004 281.50000000000006" stroke-linecap="round" />
</g>
		<g transform="matrix(1 0 0 1 -27.1 35.93)"  >
<path style="stroke: none; stroke-width: 1; stroke-dasharray: none; stroke-linecap: butt; stroke-dashoffset: 0; stroke-linejoin: miter; stroke-miterlimit: 4; fill: rgb(0,0,0); fill-rule: nonzero; opacity: 0.040000010281801224;" vector-effect="non-scaling-stroke"  transform=" translate(-247.9, -270.93)" d="M 261.64 274.74 L 255.35 267.24 L 243 277.61 L 249.3 285.11 L 244.44 289.18 L 229.35 271.18 L 234.2 267.1 L 239.69 273.65000000000003 L 252 263.3 L 246.51 256.75 L 251.37 252.68 L 266.46 270.68 L 261.59999999999997 274.76" stroke-linecap="round" />
</g>
		<g transform="matrix(1 0 0 1 -7.93 19.86)"  >
<path style="stroke: none; stroke-width: 1; stroke-dasharray: none; stroke-linecap: butt; stroke-dashoffset: 0; stroke-linejoin: miter; stroke-miterlimit: 4; fill: rgb(0,0,0); fill-rule: nonzero; opacity: 0.040000010281801224;" vector-effect="non-scaling-stroke"  transform=" translate(-267.07, -254.86)" d="M 272.18 265.9 L 257.09000000000003 247.89999999999998 L 261.95000000000005 243.81999999999996 L 277.04 261.81999999999994 L 272.18 265.8999999999999" stroke-linecap="round" />
</g>
		<g transform="matrix(1 0 0 1 11.24 3.76)"  >
<path style="stroke: none; stroke-width: 1; stroke-dasharray: none; stroke-linecap: butt; stroke-dashoffset: 0; stroke-linejoin: miter; stroke-miterlimit: 4; fill: rgb(0,0,0); fill-rule: nonzero; opacity: 0.040000010281801224;" vector-effect="non-scaling-stroke"  transform=" translate(-286.24, -238.76)" d="M 299.65 242.85 L 277.14 240.67 L 287.51 253 L 282.65999999999997 257.08 L 267.55999999999995 239.07999999999998 L 272.8399999999999 234.64999999999998 L 295.3999999999999 236.86999999999998 L 285 224.5 L 289.83 220.44 L 304.91999999999996 238.44 L 299.65999999999997 242.85999999999999" stroke-linecap="round" />
</g>
		<g transform="matrix(1 0 0 1 39.91 -20.3)"  >
<path style="stroke: none; stroke-width: 1; stroke-dasharray: none; stroke-linecap: butt; stroke-dashoffset: 0; stroke-linejoin: miter; stroke-miterlimit: 4; fill: rgb(0,0,0); fill-rule: nonzero; opacity: 0.040000010281801224;" vector-effect="non-scaling-stroke"  transform=" translate(-314.91, -214.7)" d="M 306.68 205.52 C 308.31542342512387 204.12476380564553 310.0877769112833 202.8985230193802 311.97 201.86 C 313.6161389710815 200.93733075414892 315.33524585628817 200.15135776188515 317.11 199.51000000000002 L 320.8 203.9 C 319.99869728648235 204.0565749250737 319.2073239623001 204.260261730032 318.43 204.51000000000002 C 317.538232552248 204.78347890167498 316.66620031103315 205.11759087148909 315.82 205.51000000000002 C 314.8698607480857 205.94868959243146 313.9480643617957 206.44632604734895 313.06 207.00000000000003 C 312.0798259485613 207.59852657155696 311.1440680708583 208.2669250556305 310.26 209.00000000000003 C 309.2395919927271 209.83095467115908 308.3018979711746 210.75860197105214 307.46 211.77000000000004 C 306.8160078252709 212.54248923341916 306.2655265989492 213.38835062996228 305.82 214.29000000000005 C 305.4692050040276 214.99320373615143 305.2393245430945 215.75045701922502 305.14 216.53000000000006 C 304.97112717876314 217.78256294095414 305.2021095234249 219.0564655690888 305.8 220.17000000000004 C 306.0653217478212 220.66093193869963 306.3803036651412 221.12335220029706 306.74 221.55000000000004 C 307.06959275316825 221.9361031895403 307.43084760270904 222.29401308677052 307.82 222.62000000000003 C 308.26651316127544 222.988525747282 308.7610382985527 223.29466035607268 309.29 223.53000000000003 C 309.89019113367254 223.77997062193967 310.52343750421517 223.94165054633353 311.17 224.01000000000002 C 311.9346730954853 224.08438659585403 312.70647229995404 224.02345507971174 313.45 223.83 C 314.4048077713252 223.59032802847923 315.3254526461924 223.2308061247902 316.19 222.76000000000002 C 317.3215627174657 222.12818972507262 318.38689559324655 221.3844667740558 319.37 220.54000000000002 C 319.94 220.06000000000003 320.43 219.62000000000003 320.83 219.23000000000002 C 321.18262738970935 218.87085856940834 321.5164082265683 218.49368622375775 321.83 218.10000000000002 C 322.12004118868003 217.76592836317934 322.39049387717205 217.41534154476378 322.64 217.05 L 323.38 215.96 L 321.56 213.79000000000002 L 316.11 218.36 L 312.8 214.42000000000002 L 323.11 205.77 L 330.82 214.96 C 330.30489777258197 215.79779335872544 329.7475108603203 216.6088413807589 329.15 217.39000000000001 Q 328.15 218.65 327.04999999999995 219.91000000000003 C 326.30999999999995 220.75000000000003 325.54999999999995 221.56000000000003 324.74999999999994 222.35000000000002 C 323.94999999999993 223.14000000000001 323.16999999999996 223.85000000000002 322.41999999999996 224.49 C 321.28723253075833 225.44466014989584 320.0874915696353 226.31689522191007 318.83 227.10000000000002 C 317.67436962769426 227.8185818799073 316.4560652989104 228.4310810342135 315.19 228.93000000000004 C 314.0199247016915 229.37069761061503 312.8012250050626 229.66949726075268 311.56 229.82000000000002 C 310.39629010137065 229.96115324429815 309.217307296543 229.91048063091011 308.07 229.67000000000002 C 306.90899589577816 229.41639340487865 305.79975575072183 228.96661005337714 304.79 228.34 C 303.6530520938891 227.61695033461467 302.6400641002547 226.71539102028004 301.79 225.67000000000002 C 300.908168424045 224.64844882636476 300.2049702913478 223.48546729921173 299.71000000000004 222.23000000000002 C 299.2742555382049 221.11271615597894 299.0340823602595 219.92876387033263 299.00000000000006 218.73000000000002 C 298.98145599037485 217.54027148868983 299.1536378775956 216.35525497075892 299.51000000000005 215.22000000000003 C 299.89059479276204 214.01825463453454 300.41435651559215 212.86665033369653 301.07000000000005 211.79000000000002 C 301.7715708123481 210.62289433717643 302.5818376570091 209.52468142375164 303.49000000000007 208.51000000000002 C 304.46676904035786 207.43582287064066 305.5194811898734 206.43323987110207 306.64000000000004 205.51000000000002" stroke-linecap="round" />
</g>
		<g transform="matrix(1 0 0 1 63.36 -34.45)"  >
<path style="stroke: none; stroke-width: 1; stroke-dasharray: none; stroke-linecap: butt; stroke-dashoffset: 0; stroke-linejoin: miter; stroke-miterlimit: 4; fill: rgb(0,0,0); fill-rule: nonzero; opacity: 0.040000010281801224;" vector-effect="non-scaling-stroke"  transform=" translate(-338.36, -200.55)" d="M 336.91 211.59 L 321.81 193.59 L 326.67 189.51 L 338.46000000000004 203.51 L 351.59000000000003 192.51 L 354.90000000000003 196.45 L 336.90000000000003 211.54999999999998" stroke-linecap="round" />
</g>
		<g transform="matrix(1 0 0 1 87.29 -60.04)"  >
<path style="stroke: none; stroke-width: 1; stroke-dasharray: none; stroke-linecap: butt; stroke-dashoffset: 0; stroke-linejoin: miter; stroke-miterlimit: 4; fill: rgb(0,0,0); fill-rule: nonzero; opacity: 0.040000010281801224;" vector-effect="non-scaling-stroke"  transform=" translate(-362.29, -174.96)" d="M 374.54 164.71 C 375.7535420625823 166.0985241266899 376.63877824060694 167.74253417159284 377.13 169.52 C 377.5349976363713 171.1620632038467 377.5349976363713 172.87793679615328 377.13 174.52 C 376.67764122641427 176.3194160670514 375.88690210847494 178.01628112700698 374.8 179.52 C 373.49801639465784 181.3286133429771 371.96500744257605 182.95911628543251 370.24 184.37 C 368.5388372406595 185.82894830901924 366.6566518548874 187.0624519457663 364.64 188.04 C 362.9533478766068 188.85290816931638 361.1276818841617 189.33816883273582 359.26 189.47 C 357.56543484793684 189.57990150960697 355.8696628049097 189.27438792290775 354.32 188.58 C 350.9828540726017 186.93912279452118 348.48961674814586 183.97046467020553 347.45 180.4 C 347.0465942027051 178.757743768927 347.0465942027051 177.042256231073 347.45 175.4 C 347.90892180041396 173.59747533989932 348.710131247134 171.89999769854333 349.81 170.4 C 351.1094095524661 168.57428033657237 352.64626252937006 166.9298140221171 354.38 165.51000000000002 C 356.0723658461097 164.05240492394424 357.95243123082065 162.82817630134173 359.96999999999997 161.87000000000003 C 361.64446248914624 161.05287316414936 363.461151451806 160.56729088067206 365.32 160.44000000000003 C 367.0140074749788 160.33621552141616 368.70743859801837 160.65223106567507 370.25 161.36 C 371.9130719406957 162.1498604919545 373.3761713893521 163.30529884159435 374.53 164.74 M 369.61999999999995 168.85000000000002 C 369.0485577553031 168.1744381233859 368.3734893011585 167.59387925282152 367.61999999999995 167.13000000000002 C 366.82414140331537 166.62417429730303 365.91159508712235 166.33147076192037 364.96999999999997 166.28000000000003 C 363.83486740299315 166.22329632038955 362.7012164893755 166.4179291579685 361.65 166.85000000000002 C 360.1877010691333 167.4653570955169 358.8363858726873 168.31668566927792 357.65 169.37000000000003 C 356.7776345155043 170.08755293995443 355.98022781465295 170.89166053745163 355.27 171.77000000000004 C 354.71125976671135 172.45306587516026 354.24398619048094 173.20608228577615 353.88 174.01000000000005 C 353.5804545723906 174.67491712147736 353.3913073037631 175.38421937883038 353.32 176.11000000000004 C 353.2464591731234 176.74445704821704 353.28026501240936 177.38676799464974 353.42 178.01000000000005 C 353.5403336479357 178.59992521023185 353.7458171683962 179.1692156193763 354.03000000000003 179.70000000000005 C 354.3198690112375 180.20876925095786 354.6545275662761 180.6906775702134 355.03000000000003 181.14000000000004 C 355.4147517595368 181.5846201996003 355.83623908172285 181.99607210935335 356.29 182.37000000000003 C 356.7688473800466 182.7469493212903 357.2970954960442 183.0564959879895 357.86 183.29000000000002 C 358.45154554668954 183.52219691027202 359.0757415083749 183.6605322315104 359.71000000000004 183.70000000000002 C 360.43274464371456 183.7482708233925 361.15855990955407 183.68075312424463 361.86 183.50000000000003 C 362.713744146141 183.26591810357883 363.5362968391954 182.93018231049538 364.31 182.50000000000003 C 365.29323359438126 181.9433802667813 366.22081394349175 181.29373915585194 367.08 180.56000000000003 C 368.3274293570888 179.5706653612656 369.40202728776745 178.38117331221252 370.26 177.04000000000002 C 370.8681316523498 176.0798476114084 371.257349329173 174.99754933462825 371.4 173.87000000000003 C 371.5102220748124 172.94007452255042 371.3829244221201 171.9973837972069 371.03 171.13000000000002 C 370.70045563880126 170.29657641898325 370.2414792849141 169.52036640873288 369.66999999999996 168.83" stroke-linecap="round" />
</g>
		<g transform="matrix(1 0 0 1 115.94 -84.04)"  >
<path style="stroke: none; stroke-width: 1; stroke-dasharray: none; stroke-linecap: butt; stroke-dashoffset: 0; stroke-linejoin: miter; stroke-miterlimit: 4; fill: rgb(0,0,0); fill-rule: nonzero; opacity: 0.040000010281801224;" vector-effect="non-scaling-stroke"  transform=" translate(-390.94, -150.96)" d="M 382.66 141.76 C 384.31293749908446 140.36424584854115 386.1019209695332 139.13808863845833 388 138.1 C 389.648609778573 137.17536750217837 391.3712034651332 136.38932960636933 393.15 135.75 L 396.84 140.15 C 396.03829540369696 140.3005383087932 395.2467591631971 140.50092723043872 394.46999999999997 140.75 C 393.57975425496033 141.0278787702986 392.70800815090735 141.3618811090162 391.85999999999996 141.75 C 390.90744344499564 142.19031088840933 389.9824179361762 142.68788778665518 389.09 143.24 C 388.10982594856125 143.83852657155694 387.17406807085825 144.5069250556305 386.28999999999996 145.24 C 385.27148667906164 146.0767368671749 384.33401644580016 147.0075108844845 383.48999999999995 148.02 C 382.8497078087017 148.79161236558667 382.29948722724 149.63371825550672 381.84999999999997 150.53 C 381.50414701000227 151.23516071814603 381.2745204510442 151.99157761824313 381.16999999999996 152.77 C 381.08434887949375 153.4356565530876 381.1045994328274 154.1106749975428 381.22999999999996 154.77 C 381.34530947576854 155.35815388520217 381.55108549236667 155.92488127517734 381.84 156.45000000000002 C 382.1019211003187 156.9406357860981 382.41355723396697 157.40306359731807 382.77 157.83 C 383.09930648024704 158.21943803240407 383.46056196759594 158.58069351975297 383.84999999999997 158.91000000000003 C 384.30138304460945 159.2740997808572 384.79905380249886 159.57673740389805 385.33 159.81000000000003 C 385.92333628835837 160.0698935705156 386.55484293625085 160.231991533611 387.2 160.29000000000002 C 387.96413966424655 160.36319802554067 388.73516482985025 160.3057093070527 389.47999999999996 160.12000000000003 C 390.4342137836235 159.87387068581654 391.3544763456563 159.5111394569861 392.21999999999997 159.04000000000002 C 393.35457892905356 158.41301942963247 394.420389790613 157.66896279043058 395.4 156.82000000000002 C 395.97999999999996 156.34000000000003 396.46 155.90000000000003 396.85999999999996 155.51000000000002 C 397.25999999999993 155.12 397.60999999999996 154.74 397.90999999999997 154.39000000000001 C 398.21 154.04000000000002 398.47999999999996 153.67000000000002 398.71999999999997 153.33 L 399.45 152.24 L 397.63 150.07000000000002 L 392.18 154.64000000000001 L 388.88 150.70000000000002 L 399.18 142.05 L 406.89 151.24 C 406.37489777258196 152.07779335872544 405.8175108603203 152.8888413807589 405.21999999999997 153.67000000000002 Q 404.21999999999997 154.93 403.11999999999995 156.19000000000003 C 402.38999999999993 157.03000000000003 401.61999999999995 157.85000000000002 400.81999999999994 158.63000000000002 C 400.0199999999999 159.41000000000003 399.24999999999994 160.13000000000002 398.48999999999995 160.77 C 397.3572325307583 161.72466014989584 396.1574915696353 162.59689522191007 394.9 163.38000000000002 C 393.74546195440206 164.1005279252767 392.5269756941746 164.71311854511634 391.26 165.21000000000004 C 390.0933588281514 165.6506611332257 388.8779721640848 165.94947166665645 387.64 166.10000000000002 C 386.47663501037397 166.2395053246688 385.2984524499029 166.1922429869995 384.15 165.96000000000004 C 382.99118475864816 165.69935949107472 381.88308389871753 165.25003810579796 380.87 164.63000000000002 C 379.7351997769175 163.9001033465493 378.72273822628057 162.99563769464692 377.87 161.95000000000002 C 376.9909598388629 160.93013740109598 376.2880004855185 159.7709303905328 375.79 158.52 C 375.3295263613874 157.39977702864843 375.0624043262101 156.20956239089642 375 155 C 374.9821431717967 153.81031587081836 375.1543092743018 152.62540798887116 375.51 151.49 C 375.8918292156251 150.28704727876035 376.4190610062698 149.13519693359387 377.08 148.06 C 377.78066917173754 146.89229292397 378.59099699704274 145.7939973590935 379.5 144.78 C 380.47329239927626 143.705918675807 381.5226733178745 142.7033254414775 382.64 141.78" stroke-linecap="round" />
</g>
		<g transform="matrix(1 0 0 1 141.38 -105.42)"  >
<path style="stroke: none; stroke-width: 1; stroke-dasharray: none; stroke-linecap: butt; stroke-dashoffset: 0; stroke-linejoin: miter; stroke-miterlimit: 4; fill: rgb(0,0,0); fill-rule: nonzero; opacity: 0.040000010281801224;" vector-effect="non-scaling-stroke"  transform=" translate(-416.38, -129.58)" d="M 428.63 119.31 C 429.8454249739125 120.70103166016669 430.73080726167046 122.34873151614869 431.21999999999997 124.13 C 431.6249976363713 125.77206320384671 431.6249976363713 127.48793679615328 431.21999999999997 129.13 C 430.76668964196926 130.93088903775575 429.97235554768895 132.62818411100432 428.88 134.13 C 427.5810373307676 135.94405650214838 426.04772780733595 137.5782416521216 424.32 138.99 C 422.62240829579133 140.44885261297645 420.7435389326086 141.68238580848282 418.73 142.66 C 417.04292666860187 143.4717694648872 415.2174821141578 143.9569712702506 413.35 144.09 C 411.6525170208558 144.19434093591522 409.95482405107623 143.88909916963163 408.40000000000003 143.20000000000002 C 406.7294243615679 142.4176587698312 405.25892091370474 141.26519443976167 404.1 139.83 C 402.88912825885296 138.44417676580653 402.01321681612006 136.7984212816091 401.54 135.02 C 401.1365942027051 133.37774376892702 401.1365942027051 131.662256231073 401.54 130.02 C 401.99303809880877 128.2171940805108 402.7910765979704 126.5192398269754 403.89000000000004 125.02000000000001 C 406.54130969294783 121.40088749471941 410.02656253577396 118.47478446821289 414.05000000000007 116.49000000000002 C 415.7278952600876 115.67257855858387 417.5479104331447 115.18701480905557 419.4100000000001 115.06 C 421.1007759706734 114.95621537125334 422.79097102168987 115.27226810437024 424.3300000000001 115.98 C 425.9922478437163 116.76668400605476 427.455323578077 117.91868522680143 428.61000000000007 119.35000000000001 M 423.70000000000005 123.47000000000001 C 423.1309026780055 122.79211661217052 422.4554336455014 122.21121324421698 421.70000000000005 121.75000000000001 C 420.90359262260364 121.2438763164668 419.99184043763785 120.94798692813828 419.05000000000007 120.89000000000001 C 417.91775612679163 120.84245758944593 416.78862044903684 121.04031217950568 415.74000000000007 121.47000000000001 C 414.2777010691334 122.0853570955169 412.9263858726874 122.93668566927789 411.74000000000007 123.99000000000001 C 410.86520104832056 124.70487797093367 410.06753257590475 125.50924953975631 409.36000000000007 126.39000000000001 C 408.7948775625651 127.07042224083183 408.32397757535495 127.82386222036813 407.9600000000001 128.63000000000002 C 407.6651397945304 129.29657570972634 407.47619627478844 130.00511390875866 407.4000000000001 130.73000000000002 C 407.3320654471049 131.3646209007447 407.3658231125124 132.006016543486 407.5000000000001 132.63000000000002 C 407.62376097217714 133.22037798675808 407.8326072784694 133.7896525958451 408.1200000000001 134.32000000000002 C 408.4027478782007 134.8332224509116 408.7378674724789 135.31579466667216 409.1200000000001 135.76000000000002 C 409.49961769670267 136.20942619087634 409.92155817991176 136.62132047210426 410.3800000000001 136.99 C 410.8588473800467 137.36694932129026 411.3870954960443 137.67649598798948 411.9500000000001 137.91 C 412.5378982669064 138.14276570029654 413.15889451490614 138.28113986425302 413.7900000000001 138.32 C 414.5160504404885 138.36831336421594 415.2451640235379 138.3008028472669 415.9500000000001 138.12 C 416.8031326401425 137.8841216875405 417.62547664928763 137.54847107156291 418.4000000000001 137.12 C 419.3799317417607 136.5630981445585 420.30416691365616 135.91345458170443 421.1600000000001 135.18 C 422.40750702074376 134.18776574111473 423.4849635390376 132.998848203687 424.3500000000001 131.66 C 424.95550006446496 130.6994347225938 425.3413576793775 129.61698459934368 425.4800000000001 128.49 C 425.5938251819676 127.56091824088062 425.4699574041465 126.61814682079786 425.12000000000006 125.75000000000001 C 424.786937188337 124.91615209717915 424.32460447349484 124.13997308686024 423.75000000000006 123.45000000000002" stroke-linecap="round" />
</g>
</g>
</g>
</svg>