<?xml version="1.0" encoding="UTF-8" standalone="no" ?>
<!DOCTYPE svg PUBLIC "-//W3C//DTD SVG 1.1//EN" "http://www.w3.org/Graphics/SVG/1.1/DTD/svg11.dtd">
<svg xmlns="http://www.w3.org/2000/svg" xmlns:xlink="http://www.w3.org/1999/xlink" version="1.1" width="1080" height="1080" viewBox="0 0 1080 1080" xml:space="preserve">
<desc>Created with Fabric.js 5.2.4</desc>
<defs>
</defs>
<g transform="matrix(1 0 0 1 540 540)" id="b5b38d5c-9222-4b00-851c-5c74d9872982"  >
<rect style="stroke: none; stroke-width: 1; stroke-dasharray: none; stroke-linecap: butt; stroke-dashoffset: 0; stroke-linejoin: miter; stroke-miterlimit: 4; fill: rgb(255,255,255); fill-rule: nonzero; opacity: 1; visibility: hidden;" vector-effect="non-scaling-stroke"  x="-540" y="-540" rx="0" ry="0" width="1080" height="1080" />
</g>
<g transform="matrix(1 0 0 1 540 540)" id="e7391454-43c3-4ffd-a53f-186039e6df5d"  >
</g>
<g transform="matrix(8.37 0 0 8.37 535.82 499.61)"  >
<path style="stroke: none; stroke-width: 0; stroke-dasharray: none; stroke-linecap: butt; stroke-dashoffset: 0; stroke-linejoin: miter; stroke-miterlimit: 4; fill: rgb(248,255,0); fill-rule: evenodd; opacity: 1;"  transform=" translate(-275, -188.36)" d="M 275 115 L 254.62315 126.90008 L 275 138.63714 L 254.62315 150.37419999999997 L 234.24630000000002 138.63714 L 213.70644000000001 150.37419999999997 L 234.24630000000002 162.27427999999998 L 254.62315 150.37419999999997 L 275 162.27427999999998 L 254.62315 174.01133999999996 L 275 185.74839999999995 L 295.37685 174.01133999999996 L 275 162.27427999999998 L 295.37685 150.37419999999997 L 275 138.63714 L 295.37685 126.90007999999999 z M 336.29356 150.3742 L 315.75370000000004 138.63714 L 295.37685000000005 150.37419999999997 L 315.75370000000004 162.27427999999998 z M 210.44615 155.7537 L 210.44615 179.39084 L 230.98601 191.1279 L 230.98601 214.60203 L 210.44615 202.86497000000003 L 210.44615 226.50211000000002 L 230.98601 238.23917 L 230.98601 214.60203 L 251.36285999999998 226.50211000000002 L 251.36285999999998 249.97624000000002 L 271.73971 261.7133 L 271.73971 238.23917 L 251.36286 226.50211000000002 L 251.36286 202.86497000000003 L 271.73971 214.60203 L 271.73971 191.1279 L 251.36286 179.39084000000003 L 251.36286 202.86497000000003 L 230.98601000000002 191.12791000000004 L 230.98601000000002 167.49077000000005 z M 319.01399 191.1279 L 339.55384999999995 179.39084000000003 L 339.55384999999995 155.75370000000004 L 319.01399 167.49076000000002 z M 319.01399 214.60203 L 319.01399 191.1279 L 298.63714 202.86496 L 298.63714 179.39083 L 278.26029 191.12788999999998 L 278.26029 214.60201999999998 L 298.63714 202.86496 L 298.63714 226.50209999999998 L 278.26029 238.23915999999997 L 278.26029 261.71329 L 298.63714 249.97623 L 298.63714 226.50209999999998 z M 319.01399 214.60203 L 339.55384999999995 202.86497000000003 L 339.55384999999995 226.50211000000002 L 319.01399 238.23917 z" stroke-linecap="round" />
</g>
</svg>